<?xml version="1.0" encoding="UTF-8" standalone="no"?>
<!-- Created with Inkscape (http://www.inkscape.org/) -->

<svg
   xmlns:dc="http://purl.org/dc/elements/1.1/"
   xmlns:cc="http://creativecommons.org/ns#"
   xmlns:rdf="http://www.w3.org/1999/02/22-rdf-syntax-ns#"
   xmlns:svg="http://www.w3.org/2000/svg"
   xmlns="http://www.w3.org/2000/svg"
   xmlns:sodipodi="http://sodipodi.sourceforge.net/DTD/sodipodi-0.dtd"
   xmlns:inkscape="http://www.inkscape.org/namespaces/inkscape"
   width="744.09448819"
   height="1052.3622047"
   id="svg2"
   version="1.1"
   inkscape:version="0.48.2 r9819"
   sodipodi:docname="puggleface.svg">
  <defs
     id="defs4" />
  <sodipodi:namedview
     id="base"
     pagecolor="#ffffff"
     bordercolor="#666666"
     borderopacity="1.0"
     inkscape:pageopacity="0.0"
     inkscape:pageshadow="2"
     inkscape:zoom="0.70257353"
     inkscape:cx="311.23604"
     inkscape:cy="753.50708"
     inkscape:document-units="px"
     inkscape:current-layer="layer1"
     showgrid="false"
     inkscape:window-width="1488"
     inkscape:window-height="1039"
     inkscape:window-x="0"
     inkscape:window-y="0"
     inkscape:window-maximized="0" />
  <metadata
     id="metadata7">
    <rdf:RDF>
      <cc:Work
         rdf:about="">
        <dc:format>image/svg+xml</dc:format>
        <dc:type
           rdf:resource="http://purl.org/dc/dcmitype/StillImage" />
        <dc:title></dc:title>
      </cc:Work>
    </rdf:RDF>
  </metadata>
  <g
     inkscape:label="Layer 1"
     inkscape:groupmode="layer"
     id="layer1">
    <path
       style="fill:none;stroke:#000000;stroke-width:9.93641567;stroke-linecap:butt;stroke-linejoin:miter;stroke-miterlimit:4;stroke-opacity:1;stroke-dasharray:none"
       d="m 162.85145,488.04698 c -30.26821,-80.47054 -36.84951,-153.72887 -6.34273,-203.38224 40.12248,-65.30402 94.44293,-121.65606 195.7496,-125.22445 87.0548,-4.82045 161.929,58.44405 197.23353,120.89289 30.23999,53.49036 41.80506,128.21212 -2.68184,208.21703"
       id="path2991"
       inkscape:connector-curvature="0"
       sodipodi:nodetypes="cscsc" />
    <g
       id="g3019"
       transform="matrix(0.93129105,0,0,1,24.407218,24)"
       style="stroke-width:10.36232682;stroke-miterlimit:4;stroke-dasharray:none">
      <g
         id="g3023"
         style="stroke-width:10.36232682;stroke-miterlimit:4;stroke-dasharray:none">
        <path
           sodipodi:nodetypes="ccssc"
           inkscape:connector-curvature="0"
           id="path3017"
           d="m 561.88051,463.07647 c -37.2055,75 -22.18019,90.71429 -22.18019,90.71429 0,0 10.73234,28.57142 -10.73236,48.57142 -20.34573,18.95739 -42.10337,28.85643 -88.0053,42.85715 -44.16574,13.47116 -90.07917,11.42333 -90.07917,11.42333"
           style="fill:none;stroke:#000000;stroke-width:10.36232662;stroke-linecap:butt;stroke-linejoin:miter;stroke-miterlimit:4;stroke-opacity:1;stroke-dasharray:none" />
        <path
           style="fill:none;stroke:#000000;stroke-width:10.36232662;stroke-linecap:butt;stroke-linejoin:miter;stroke-miterlimit:4;stroke-opacity:1;stroke-dasharray:none"
           d="m 148.57143,463.07647 c 37.14286,75 22.14285,90.71429 22.14285,90.71429 0,0 -10.71428,28.57142 10.71429,48.57142 20.31148,18.95739 42.03249,28.85643 87.85715,42.85715 44.09139,13.47116 83.54526,11.42333 83.54526,11.42333"
           id="path2993"
           inkscape:connector-curvature="0"
           sodipodi:nodetypes="ccssc" />
      </g>
    </g>
    <g
       id="g3988"
       transform="translate(0,8)">
      <g
         id="g3843">
        <g
           id="g3819">
          <g
             transform="matrix(1.0765248,0,0,1.120518,-25.175395,-58.312186)"
             id="g3807">
            <path
               style="fill:none;stroke:#000000;stroke-width:5;stroke-linecap:butt;stroke-linejoin:miter;stroke-miterlimit:4;stroke-opacity:1;stroke-dasharray:none"
               d="m 356.78736,477.67789 c -42.18223,-0.41445 -81.61768,31.47171 -93.11326,36.0736 -20.27576,8.11674 -24.12328,-0.97547 -33.19651,0.15869 -16.10324,2.01291 1.00645,16.60646 1.00645,16.60646 9.05808,6.70968 9.56129,13.75485 -2.51613,17.10969 -16.10608,5.00627 -29.24714,48.81704 8.22662,41.03978 37.82772,-7.85072 81.03796,-16.97036 120.09605,-17.38815"
               id="path3803"
               inkscape:connector-curvature="0"
               sodipodi:nodetypes="cssccsc" />
            <path
               sodipodi:nodetypes="cssccsc"
               inkscape:connector-curvature="0"
               id="path3805"
               d="m 354.45675,477.67789 c 42.18223,-0.41445 80.61123,31.47171 92.10681,36.0736 20.27576,8.11674 24.12328,-0.97547 33.19651,0.15869 16.10324,2.01291 -1.00645,16.60646 -1.00645,16.60646 -9.05808,6.70968 -9.56129,13.75485 2.51613,17.10969 16.10608,5.00627 29.24714,48.81704 -8.22662,41.03978 -37.82772,-7.85072 -81.03796,-16.97036 -120.09605,-17.38815"
               style="fill:none;stroke:#000000;stroke-width:5;stroke-linecap:butt;stroke-linejoin:miter;stroke-miterlimit:4;stroke-opacity:1;stroke-dasharray:none" />
          </g>
          <g
             id="g3815">
            <path
               style="fill:none;stroke:#000000;stroke-width:7;stroke-linecap:butt;stroke-linejoin:miter;stroke-miterlimit:4;stroke-opacity:1;stroke-dasharray:none"
               d="m 244.56792,597.44572 c 4.75128,5.59211 8.17319,11.8489 20.63227,13.58711 l 105.6775,0"
               id="path3811"
               inkscape:connector-curvature="0"
               sodipodi:nodetypes="ccc" />
            <path
               sodipodi:nodetypes="ccc"
               inkscape:connector-curvature="0"
               id="path3813"
               d="m 464.99383,597.44572 c -4.75128,5.59211 -8.17319,11.8489 -20.63227,13.58711 l -105.6775,0"
               style="fill:none;stroke:#000000;stroke-width:7;stroke-linecap:butt;stroke-linejoin:miter;stroke-miterlimit:4;stroke-opacity:1;stroke-dasharray:none" />
          </g>
        </g>
        <g
           id="g3837">
          <path
             sodipodi:nodetypes="cc"
             inkscape:connector-curvature="0"
             id="path3827"
             d="m 288.83892,540.02632 c 75.87907,-34.11873 133.63351,-0.13186 133.85816,0"
             style="fill:none;stroke:#000000;stroke-width:3.0999999;stroke-linecap:butt;stroke-linejoin:miter;stroke-miterlimit:4;stroke-opacity:1;stroke-dasharray:none" />
          <g
             id="g3833">
            <path
               sodipodi:type="arc"
               style="fill:#00000f;fill-opacity:0.94117647;fill-rule:evenodd;stroke:#000000;stroke-width:1px;stroke-linecap:butt;stroke-linejoin:miter;stroke-opacity:1"
               id="path3829"
               sodipodi:cx="309.98734"
               sodipodi:cy="560.20697"
               sodipodi:rx="8.5548449"
               sodipodi:ry="3.019357"
               d="m 318.54218,560.20697 c 0,1.66755 -3.83013,3.01936 -8.55484,3.01936 -4.72472,0 -8.55485,-1.35181 -8.55485,-3.01936 0,-1.66754 3.83013,-3.01936 8.55485,-3.01936 4.72471,0 8.55484,1.35182 8.55484,3.01936 z"
               transform="translate(12,0)" />
            <path
               transform="translate(76,0)"
               d="m 318.54218,560.20697 c 0,1.66755 -3.83013,3.01936 -8.55484,3.01936 -4.72472,0 -8.55485,-1.35181 -8.55485,-3.01936 0,-1.66754 3.83013,-3.01936 8.55485,-3.01936 4.72471,0 8.55484,1.35182 8.55484,3.01936 z"
               sodipodi:ry="3.019357"
               sodipodi:rx="8.5548449"
               sodipodi:cy="560.20697"
               sodipodi:cx="309.98734"
               id="path3831"
               style="fill:#00000f;fill-opacity:0.94117647;fill-rule:evenodd;stroke:#000000;stroke-width:1px;stroke-linecap:butt;stroke-linejoin:miter;stroke-opacity:1"
               sodipodi:type="arc" />
          </g>
        </g>
      </g>
      <g
         id="g3959">
        <g
           id="g3924"
           transform="matrix(-1,0,0,1,712.6432,0)">
          <g
             id="g3926"
             style="stroke-width:2;stroke-miterlimit:4;stroke-dasharray:none">
            <path
               sodipodi:nodetypes="ccccc"
               inkscape:connector-curvature="0"
               id="path3928"
               d="m 238.5292,521.45856 c -28.66962,-12.00435 -31.23078,-38.21456 -32.20647,-63.40649 0.46329,-36.64763 13.51118,-48.12608 32.7097,-47.30326 16.57813,-0.59464 33.09917,4.44487 41.76778,46.80003 5.15517,46.36332 -4.2237,49.80623 -7.04517,48.81294"
               style="fill:none;stroke:#000000;stroke-width:5;stroke-linecap:butt;stroke-linejoin:miter;stroke-miterlimit:4;stroke-opacity:1;stroke-dasharray:none" />
            <path
               sodipodi:nodetypes="csc"
               inkscape:connector-curvature="0"
               id="path3930"
               d="m 279.79375,455.53594 c -11.91348,-13.33274 -23.11344,-8.36741 -24.7353,-7.36343 -23.15198,14.33183 -15.1052,49.13844 8.63206,64.73122"
               style="fill:none;stroke:#000000;stroke-width:5;stroke-linecap:butt;stroke-linejoin:miter;stroke-miterlimit:4;stroke-opacity:1;stroke-dasharray:none" />
            <path
               transform="matrix(1,0,0,1.1933416,0,-93.479344)"
               d="m 274.76149,480.94885 c 0,4.30783 -2.81628,7.80001 -6.29033,7.80001 -3.47405,0 -6.29033,-3.49218 -6.29033,-7.80001 0,-4.30782 2.81628,-7.8 6.29033,-7.8 3.47405,0 6.29033,3.49218 6.29033,7.8 z"
               sodipodi:ry="7.8000059"
               sodipodi:rx="6.2903271"
               sodipodi:cy="480.94885"
               sodipodi:cx="268.47116"
               id="path3932"
               style="fill:#333333;fill-rule:evenodd;stroke:#000000;stroke-width:1.83082831;stroke-linecap:butt;stroke-linejoin:miter;stroke-miterlimit:4;stroke-opacity:1;stroke-dasharray:none"
               sodipodi:type="arc" />
          </g>
          <path
             style="color:#000000;fill:#808080;fill-opacity:1;fill-rule:nonzero;stroke:#000000;stroke-width:5;stroke-linecap:butt;stroke-linejoin:miter;stroke-miterlimit:4;stroke-opacity:1;stroke-dasharray:none;stroke-dashoffset:0;marker:none;visibility:visible;display:inline;overflow:visible;enable-background:accumulate"
             d="m 260.55556,509.23576 c -1.57505,-1.26019 -3.78705,-3.28856 -4.91555,-4.50748 -16.62202,-17.95376 -17.77759,-42.19086 -2.56703,-53.84121 3.38943,-2.5961 4.94591,-3.14025 9.12795,-3.19119 2.68247,-0.0327 3.87071,0.12825 5.75505,0.7794 2.98148,1.03027 6.29769,3.16778 9.31326,6.00301 l 2.33753,2.19773 0.55139,5.2748 c 1.78105,17.03806 1.07237,33.79467 -1.65628,39.16253 -0.74779,1.47107 -1.45875,2.01516 -7.86042,6.01552 -3.87106,2.41899 -7.07966,4.39816 -7.13022,4.39816 -0.0506,0 -1.38062,-1.03107 -2.95568,-2.29127 z m 11.20994,-20.15973 c 0.60132,-0.4709 1.61758,-1.89374 2.25835,-3.16188 1.05929,-2.09642 1.16171,-2.58092 1.12838,-5.33752 -0.0465,-3.84808 -1.01171,-6.5416 -2.98192,-8.32156 -3.23015,-2.91825 -6.9757,-1.8333 -9.22746,2.67286 -0.95725,1.91563 -1.09776,2.5684 -1.09776,5.09998 0,1.59675 0.23559,3.69284 0.52353,4.65798 0.61776,2.07065 2.36048,4.30945 3.89676,5.00604 1.57601,0.7146 4.17236,0.42386 5.50012,-0.6159 l 0,0 z"
             id="path3934"
             inkscape:connector-curvature="0" />
          <path
             style="color:#000000;fill:#ffffff;fill-opacity:1;fill-rule:nonzero;stroke:#000000;stroke-width:5;stroke-linecap:butt;stroke-linejoin:miter;stroke-miterlimit:4;stroke-opacity:1;stroke-dasharray:none;stroke-dashoffset:0;marker:none;visibility:visible;display:inline;overflow:visible;enable-background:accumulate"
             d="m 444.37301,467.82946 c 0.16422,-4.23132 0.97949,-7.54631 2.80165,-11.39183 1.09832,-2.31791 1.78526,-3.4685 3.7529,-6.28592 0.86555,-1.23937 1.57373,-2.34024 1.57373,-2.44637 0.0342,-0.0764 0.16721,0.007 0.25082,0.0109 1.23585,0.23779 3.34915,0.73804 4.64189,1.49337 3.08216,1.8545 6.55602,5.24163 8.5123,8.29978 0.34868,0.54509 0.5843,1.04073 0.52359,1.10144 0.0681,0.0856 0.17342,0.23167 0.21581,0.2883 0.28163,1.31066 0.0152,2.97715 -0.24837,4.18105 -1.518,6.74852 -7.49563,12.48577 -13.47772,15.28122 -8.82912,2.08482 -8.58577,-7.09119 -8.5466,-10.53194 z"
             id="path3942"
             inkscape:connector-curvature="0"
             transform="matrix(-1,0,0,1,712.6432,0)"
             sodipodi:nodetypes="cssccccccccc" />
        </g>
      </g>
      <g
         id="g3948">
        <path
           style="color:#000000;fill:#ffffff;fill-opacity:1;fill-rule:nonzero;stroke:none;stroke-width:0.15940443;marker:none;visibility:visible;display:inline;overflow:visible;enable-background:accumulate"
           d="m 263.26843,509.47672 c -7.95153,-6.06145 -13.56172,-13.48391 -16.90474,-22.3655 -3.64886,-9.69412 -3.16885,-20.44764 1.2462,-27.91816 2.40652,-4.07198 6.91954,-8.17317 10.40607,-9.45648 2.36034,-0.86879 7.08047,-0.75355 9.7004,0.23683 2.87151,1.08548 6.35666,3.4062 8.63285,5.7485 l 1.87199,1.92637 0.59268,5.50034 c 0.76946,7.14091 0.87758,26.61177 0.16985,30.58668 -1.00911,5.66756 -2.03056,8.16487 -4.18326,10.22752 -1.60425,1.53713 -9.21834,6.51174 -9.91823,6.48 -0.20261,-0.009 -0.92883,-0.44394 -1.61381,-0.9661 z m 8.40683,-20.33888 c 6.26713,-4.92972 3.83019,-18.5375 -3.31852,-18.53046 -2.44297,0.002 -4.80851,2.11027 -6.01593,5.36062 -0.86874,2.33863 -0.7908,6.7703 0.16253,9.24177 1.76168,4.56709 6.03364,6.39665 9.17192,3.92807 l 0,0 z"
           id="path3911"
           inkscape:connector-curvature="0" />
        <g
           id="g3917"
           style="stroke-width:5;stroke-miterlimit:4;stroke-dasharray:none">
          <g
             style="stroke-width:5;stroke-miterlimit:4;stroke-dasharray:none"
             id="g3882">
            <path
               style="fill:none;stroke:#000000;stroke-width:5;stroke-linecap:butt;stroke-linejoin:miter;stroke-miterlimit:4;stroke-opacity:1;stroke-dasharray:none"
               d="m 238.5292,521.45856 c -28.66962,-12.00435 -31.23078,-38.21456 -32.20647,-63.40649 0.46329,-36.64763 13.51118,-48.12608 32.7097,-47.30326 16.57813,-0.59464 33.09917,4.44487 41.76778,46.80003 5.15517,46.36332 -4.2237,49.80623 -7.04517,48.81294"
               id="path3876"
               inkscape:connector-curvature="0"
               sodipodi:nodetypes="ccccc" />
            <path
               style="fill:none;stroke:#000000;stroke-width:5;stroke-linecap:butt;stroke-linejoin:miter;stroke-miterlimit:4;stroke-opacity:1;stroke-dasharray:none"
               d="m 279.79375,455.53594 c -11.91348,-13.33274 -23.11344,-8.36741 -24.7353,-7.36343 -23.15198,14.33183 -15.1052,49.13844 8.63206,64.73122"
               id="path3878"
               inkscape:connector-curvature="0"
               sodipodi:nodetypes="csc" />
            <path
               sodipodi:type="arc"
               style="fill:#333333;fill-rule:evenodd;stroke:#000000;stroke-width:4.57707071;stroke-linecap:butt;stroke-linejoin:miter;stroke-miterlimit:4;stroke-opacity:1;stroke-dasharray:none"
               id="path3880"
               sodipodi:cx="268.47116"
               sodipodi:cy="480.94885"
               sodipodi:rx="6.2903271"
               sodipodi:ry="7.8000059"
               d="m 274.76149,480.94885 c 0,4.30783 -2.81628,7.80001 -6.29033,7.80001 -3.47405,0 -6.29033,-3.49218 -6.29033,-7.80001 0,-4.30782 2.81628,-7.8 6.29033,-7.8 3.47405,0 6.29033,3.49218 6.29033,7.8 z"
               transform="matrix(1,0,0,1.1933416,0,-93.479344)" />
          </g>
          <path
             inkscape:connector-curvature="0"
             id="path3915"
             d="m 260.55556,509.23576 c -1.57505,-1.26019 -3.78705,-3.28856 -4.91555,-4.50748 -16.62202,-17.95376 -17.77759,-42.19086 -2.56703,-53.84121 3.38943,-2.5961 4.94591,-3.14025 9.12795,-3.19119 2.68247,-0.0327 3.87071,0.12825 5.75505,0.7794 2.98148,1.03027 6.29769,3.16778 9.31326,6.00301 l 2.33753,2.19773 0.55139,5.2748 c 1.78105,17.03806 1.07237,33.79467 -1.65628,39.16253 -0.74779,1.47107 -1.45875,2.01516 -7.86042,6.01552 -3.87106,2.41899 -7.07966,4.39816 -7.13022,4.39816 -0.0506,0 -1.38062,-1.03107 -2.95568,-2.29127 z m 11.20994,-20.15973 c 0.60132,-0.4709 1.61758,-1.89374 2.25835,-3.16188 1.05929,-2.09642 1.16171,-2.58092 1.12838,-5.33752 -0.0465,-3.84808 -1.01171,-6.5416 -2.98192,-8.32156 -3.23015,-2.91825 -6.9757,-1.8333 -9.22746,2.67286 -0.95725,1.91563 -1.09776,2.5684 -1.09776,5.09998 0,1.59675 0.23559,3.69284 0.52353,4.65798 0.61776,2.07065 2.36048,4.30945 3.89676,5.00604 1.57601,0.7146 4.17236,0.42386 5.50012,-0.6159 l 0,0 z"
             style="color:#000000;fill:#808080;fill-opacity:1;fill-rule:nonzero;stroke:#000000;stroke-width:5;stroke-linecap:butt;stroke-linejoin:miter;stroke-miterlimit:4;stroke-opacity:1;stroke-dasharray:none;stroke-dashoffset:0;marker:none;visibility:visible;display:inline;overflow:visible;enable-background:accumulate" />
        </g>
        <path
           style="fill:none;stroke:#000000;stroke-width:1px;stroke-linecap:butt;stroke-linejoin:miter;stroke-opacity:1"
           d="m 271.85767,447.79913 c -6.92719,9.14972 -6.11049,18.02828 -3.74891,26.24912 2.86542,7.74442 4.77798,9.18064 14.06811,10.75768"
           id="path3936"
           inkscape:connector-curvature="0"
           sodipodi:nodetypes="ccc" />
        <path
           style="color:#000000;fill:#ffffff;fill-opacity:1;fill-rule:nonzero;stroke:#000000;stroke-width:5;stroke-linecap:butt;stroke-linejoin:miter;stroke-miterlimit:4;stroke-opacity:1;stroke-dasharray:none;stroke-dashoffset:0;marker:none;visibility:visible;display:inline;overflow:visible;enable-background:accumulate"
           d="m 279.79897,483.86867 c -1.7253,-0.37675 -3.64237,-0.88954 -4.20598,-1.12502 -7.05147,-3.35077 -7.06722,-8.64104 -7.97458,-12.66019 -0.62227,-2.69579 -0.86614,-7.11558 -0.53665,-9.7259 0.38084,-3.01714 1.49148,-6.30852 3.04668,-9.02884 0.48991,-0.85692 0.91767,-1.58627 0.95059,-1.62075 0.64819,0.42056 1.03947,0.68066 1.68628,1.19188 2.58365,1.8945 5.73318,3.90538 7.03207,6.51536 0.0803,0.39885 0.13367,0.88006 0.11863,1.06935 -0.015,0.1893 0.003,0.42909 0.0412,0.53288 0.68519,8.64348 1.57585,16.78151 1.23221,25.1505 -0.0382,-0.006 -0.66388,-0.14061 -1.39041,-0.29926 l 0,0 z"
           id="path3946"
           inkscape:connector-curvature="0"
           sodipodi:nodetypes="cccssccccccccc" />
      </g>
    </g>
    <path
       style="fill:none;stroke:#000000;stroke-width:10;stroke-linecap:butt;stroke-linejoin:miter;stroke-opacity:1;stroke-miterlimit:4;stroke-dasharray:none"
       d="m 182.16788,375.03266 c 37.57422,5.65891 75.14844,17.83656 112.72266,34.21938"
       id="path4021"
       inkscape:connector-curvature="0"
       sodipodi:nodetypes="cc" />
    <path
       style="fill:none;stroke:#000000;stroke-width:10;stroke-linecap:butt;stroke-linejoin:miter;stroke-miterlimit:4;stroke-opacity:1;stroke-dasharray:none"
       d="m 413.52287,405.11008 c 26.99226,-37.9459 71.43162,-37.82221 115.15918,-39.25164"
       id="path4023"
       inkscape:connector-curvature="0"
       sodipodi:nodetypes="cc" />
    <path
       style="fill:none;stroke:#000000;stroke-width:10;stroke-linecap:butt;stroke-linejoin:miter;stroke-miterlimit:4;stroke-opacity:1;stroke-dasharray:none"
       d="m 303.6557,167.48625 c 29.81066,24.02844 47.99452,59.63137 59.41948,90.07148 3.73371,-17.52474 20.25863,-15.56672 -2.55568,-73.52774 23.39521,11.43766 26.10275,34.51719 38.33516,45.95485 5.75043,-44.72985 -0.15663,-51.35024 -6.38921,-68.62589"
       id="path4025"
       inkscape:connector-curvature="0"
       sodipodi:nodetypes="ccccc" />
  </g>
</svg>
