<?xml version="1.0" encoding="UTF-8" standalone="no"?>
<!-- Created with Inkscape (http://www.inkscape.org/) -->

<svg
   xmlns:dc="http://purl.org/dc/elements/1.1/"
   xmlns:cc="http://creativecommons.org/ns#"
   xmlns:rdf="http://www.w3.org/1999/02/22-rdf-syntax-ns#"
   xmlns:svg="http://www.w3.org/2000/svg"
   xmlns="http://www.w3.org/2000/svg"
   xmlns:xlink="http://www.w3.org/1999/xlink"
   xmlns:sodipodi="http://sodipodi.sourceforge.net/DTD/sodipodi-0.dtd"
   xmlns:inkscape="http://www.inkscape.org/namespaces/inkscape"
   width="744.09448819"
   height="1052.3622047"
   id="svg2"
   version="1.1"
   inkscape:version="0.48.2 r9819"
   sodipodi:docname="puggle_is_coming.svg">
  <defs
     id="defs4">
    <linearGradient
       id="linearGradient4070">
      <stop
         style="stop-color:#ebeb00;stop-opacity:1;"
         offset="0"
         id="stop4072" />
      <stop
         id="stop4080"
         offset="0.63636363"
         style="stop-color:#918f59;stop-opacity:0.69411767;" />
      <stop
         style="stop-color:#0738b3;stop-opacity:0.39215687;"
         offset="1"
         id="stop4074" />
    </linearGradient>
    <linearGradient
       id="linearGradient4048">
      <stop
         style="stop-color:#97ed5f;stop-opacity:1;"
         offset="0"
         id="stop4050" />
      <stop
         id="stop4062"
         offset="0.41219008"
         style="stop-color:#adf67d;stop-opacity:0.49803922;" />
      <stop
         style="stop-color:#56a6a8;stop-opacity:0.60392157;"
         offset="0.64772725"
         id="stop4064" />
      <stop
         style="stop-color:#0056d4;stop-opacity:0.71428573;"
         offset="1"
         id="stop4052" />
    </linearGradient>
    <linearGradient
       inkscape:collect="always"
       xlink:href="#linearGradient4048"
       id="linearGradient4188"
       gradientUnits="userSpaceOnUse"
       x1="142.91844"
       y1="422.71124"
       x2="570.91803"
       y2="422.71124" />
    <linearGradient
       inkscape:collect="always"
       xlink:href="#linearGradient4070"
       id="linearGradient4190"
       gradientUnits="userSpaceOnUse"
       x1="207.48052"
       y1="547.47727"
       x2="506.96275"
       y2="547.47727" />
  </defs>
  <sodipodi:namedview
     id="base"
     pagecolor="#ffffff"
     bordercolor="#666666"
     borderopacity="1.0"
     inkscape:pageopacity="0.0"
     inkscape:pageshadow="2"
     inkscape:zoom="0.70257353"
     inkscape:cx="505.31358"
     inkscape:cy="542.17143"
     inkscape:document-units="px"
     inkscape:current-layer="layer1"
     showgrid="false"
     inkscape:window-width="1488"
     inkscape:window-height="1039"
     inkscape:window-x="0"
     inkscape:window-y="0"
     inkscape:window-maximized="0" />
  <metadata
     id="metadata7">
    <rdf:RDF>
      <cc:Work
         rdf:about="">
        <dc:format>image/svg+xml</dc:format>
        <dc:type
           rdf:resource="http://purl.org/dc/dcmitype/StillImage" />
        <dc:title></dc:title>
      </cc:Work>
    </rdf:RDF>
  </metadata>
  <g
     inkscape:label="Layer 1"
     inkscape:groupmode="layer"
     id="layer1">
    <path
       style="color:#000000;fill:#ffffff;fill-opacity:1;fill-rule:nonzero;stroke:#000000;stroke-width:0.07970221;stroke-linecap:butt;stroke-linejoin:miter;stroke-miterlimit:4;stroke-opacity:1;stroke-dasharray:none;stroke-dashoffset:0;marker:none;visibility:visible;display:inline;overflow:visible;enable-background:accumulate"
       d="m 491.52499,559.24825 c -4.31521,-0.33751 -6.99089,-2.08272 -11.54754,-4.37922 -3.42061,-1.41009 10.88272,-13.39942 13.74244,-18.44621 9.70892,-17.47567 8.66377,-35.55746 -3.87359,-46.07652 -3.2422,-2.72026 -5.0894,-1.34502 -8.19573,-2.1221 -2.07598,-0.51932 -10.1024,2.47233 -12.18733,2.95969 -9.21025,2.26853 -7.67858,2.80248 -2.92175,-10.58442 5.04905,-14.07046 11.52386,-23.96636 20.59314,-27.04016 3.95295,-1.33975 8.39778,-0.93469 15.82733,-0.8223 6.19906,0.0938 10.02194,0.94085 12.98703,1.92217 8.61622,2.85161 13.87149,11.25493 16.6559,23.66974 1.64982,7.356 1.64858,16.95121 1.1903,25.68809 -0.68856,13.1268 -3.58389,21.08377 -6.32974,29.07442 -2.33637,6.79905 -5.44976,15.53897 -10.21929,20.31103 -5.69756,5.19647 -12.71617,8.01938 -20.02781,7.26907 z"
       id="path4221"
       inkscape:connector-curvature="0"
       sodipodi:nodetypes="cccssccssssssccc" />
    <path
       style="color:#000000;fill:#ffffff;fill-opacity:1;fill-rule:nonzero;stroke:#000000;stroke-width:0.15940443;stroke-linecap:butt;stroke-linejoin:miter;stroke-miterlimit:4;stroke-opacity:1;stroke-dasharray:none;stroke-dashoffset:0;marker:none;visibility:visible;display:inline;overflow:visible;enable-background:accumulate"
       d="m 266.40945,559.78769 c -5.78766,-0.83831 -14.07354,-8.45262 -19.06558,-15.8505 -6.40196,-9.4873 -8.90795,-22.24289 -9.60799,-42.24344 -0.46391,-13.25424 0.46657,-25.98925 4.46694,-33.92242 3.49652,-6.93401 9.2022,-11.80076 16.13512,-13.5739 5.1581,-1.31922 15.58562,-1.72723 21.13502,-0.30782 8.57828,2.19413 17.11396,10.50391 22.1626,22.10704 1.33941,3.07832 4.37052,13.88971 4.37052,14.69932 0,0.15902 -2.83527,-0.35314 -4.45543,-1.21502 -4.16933,-2.21795 -6.7085,-2.33732 -11.53496,-2.15258 -3.46813,0.13275 -4.45828,-0.0354 -6.48549,0.92096 -4.24042,2.00044 -7.88741,3.66011 -10.94857,8.19681 -3.72435,5.51955 -5.36042,12.17576 -4.97694,20.24821 0.44151,9.294 3.70107,18.08431 9.75467,26.30622 2.38007,3.23257 7.25357,6.57339 9.81875,8.55241 1.06412,0.82097 2.43983,2.24737 2.5638,2.33815 1.89543,1.38807 -10.7295,5.32614 -14.9824,5.91767 -3.0386,0.42263 -4.42662,0.73414 -7.46941,0.29342 z"
       id="path4219"
       inkscape:connector-curvature="0"
       sodipodi:nodetypes="csssssssssssssssscc" />
    <g
       id="g3019"
       transform="matrix(0.93129105,0,0,1,53.293347,56.970173)"
       style="stroke-width:10.36232662;stroke-miterlimit:4;stroke-dasharray:none">
      <g
         id="g3023"
         style="stroke-width:10.36232662;stroke-miterlimit:4;stroke-dasharray:none">
        <path
           sodipodi:nodetypes="ccssc"
           inkscape:connector-curvature="0"
           id="path3017"
           d="m 560.7998,462.82486 c -37.2055,75 -21.09948,90.9659 -21.09948,90.9659 0,0 10.73234,28.57142 -10.73236,48.57142 -20.34573,18.95739 -42.10337,28.85643 -88.0053,42.85715 -44.16574,13.47116 -90.07917,11.42333 -90.07917,11.42333"
           style="fill:none;stroke:#000000;stroke-width:10.36232662;stroke-linecap:butt;stroke-linejoin:miter;stroke-miterlimit:4;stroke-opacity:1;stroke-dasharray:none" />
        <path
           style="fill:none;stroke:#000000;stroke-width:10.36232662;stroke-linecap:butt;stroke-linejoin:miter;stroke-miterlimit:4;stroke-opacity:1;stroke-dasharray:none"
           d="m 148.57143,463.07647 c 37.14286,75 22.14285,90.71429 22.14285,90.71429 0,0 -10.71428,28.57142 10.71429,48.57142 20.31148,18.95739 42.03249,28.85643 87.85715,42.85715 44.09139,13.47116 83.54526,11.42333 83.54526,11.42333"
           id="path2993"
           inkscape:connector-curvature="0"
           sodipodi:nodetypes="ccssc" />
      </g>
    </g>
    <g
       id="g4147"
       transform="translate(27.659444,32.970173)">
      <path
         sodipodi:nodetypes="cscsc"
         inkscape:connector-curvature="0"
         id="path2991"
         d="m 164.36113,488.29859 c -30.26821,-80.47054 -38.35919,-153.98048 -7.85241,-203.63385 40.12248,-65.30402 94.44293,-121.65606 195.7496,-125.22445 87.0548,-4.82045 161.929,58.44405 197.23353,120.89289 30.23999,53.49036 41.80506,128.21212 -2.68184,208.21703"
         style="fill:none;stroke:#000000;stroke-width:9.93641567;stroke-linecap:butt;stroke-linejoin:miter;stroke-miterlimit:4;stroke-opacity:1;stroke-dasharray:none" />
      <path
         sodipodi:nodetypes="ccccc"
         inkscape:connector-curvature="0"
         id="path4107"
         d="m 335.01797,239.49376 c 23.98039,4.35026 52.53887,38.87331 76.51926,66.05978 -2.52611,-22.13291 -10.97556,-53.05012 -32.70054,-76.03107 29.2032,-0.40663 31.71315,10.91218 52.9749,29.29067 -6.90488,-21.88212 -14.76493,-40.79169 -35.3166,-69.17581"
         style="fill:none;stroke:#000000;stroke-width:8.88061237;stroke-linecap:butt;stroke-linejoin:bevel;stroke-miterlimit:4;stroke-opacity:1;stroke-dasharray:none" />
      <path
         sodipodi:nodetypes="cssssssssssccsssssscscscsssssssssssssssscsssssssssssssssss"
         inkscape:connector-curvature="0"
         id="path4046"
         d="m 318.68071,674.88438 c -8.25754,-1.00106 -18.82583,-3.35068 -23.48508,-4.29878 -11.41156,-2.32212 -41.95844,-13.11837 -57.54037,-19.9554 -25.48278,-11.18132 -46.62743,-27.69145 -51.10939,-40.84527 -2.96038,-8.68824 -0.63615,-22.73259 2.33863,-31.46305 5.19126,-15.23552 -2.55929,-41.36863 -17.28177,-76.9257 -14.81041,-35.76945 -18.60342,-57.21277 -25.13911,-90.382 -2.72907,-13.85029 -5.23832,-20.46343 -5.23927,-45.75527 -10e-4,-27.88378 2.26412,-31.31834 5.77115,-44.17375 4.43437,-16.2547 8.62291,-29.7168 20.72176,-47.76386 20.27176,-30.23803 47.20137,-59.39835 69.22774,-74.49021 14.23581,-9.75398 32.38144,-19.11225 49.19483,-24.74525 44.71517,-15.51 99.76792,-16.85922 139.36736,0.9082 61.26699,23.40812 118.31291,82.41965 138.65876,144.45555 7.99167,24.36714 11.70265,43.66637 10.66705,69.147 -1.31644,32.39061 -10.29358,53.33335 -27.65295,90.48623 -23.33889,49.9504 -27.27627,80.86552 -20.62846,99.70739 2.7973,7.92841 0.0491,23.75823 -2.84097,32.24015 -4.48321,13.15747 -27.47835,31.19998 -52.94438,42.36129 -49.84677,21.84693 -102.16002,27.54522 -152.08553,21.49273 z m 130.54641,-53.3821 c 3.67599,-0.92561 8.93296,-3.89654 12.58842,-7.1142 l 6.2766,-5.52487 11.06875,2.28905 c 15.58886,3.22385 22.77558,2.15367 28.66048,-4.26788 4.06287,-4.43336 4.67475,-6.09523 4.67475,-12.69675 0,-15.15531 -13.05408,-31.44688 -24.52008,-36.03466 -7.74415,-3.09859 -2.83097,-4.64687 6.01667,-14.32761 9.55572,-10.45546 4.23756,-15.3922 -5.63949,-18.9086 -2.41784,-0.86079 -2.33227,-1.26683 1.13554,-5.38809 9.50271,-11.29332 18.89083,-28.72656 18.86419,-52.1151 -0.0276,-24.29931 -4.13645,-36.91306 -14.84502,-45.57345 -5.08854,-4.11527 -6.36778,-3.19454 -18.50341,-3.6213 -14.8497,-0.5222 -18.45131,2.2461 -25.57226,9.36705 -6.66906,6.66905 -10.95151,12.64398 -15.12713,26.84014 -3.15758,10.735 -3.04809,15.86587 -3.2292,31.67477 -0.11885,10.37561 -0.53856,21.87427 -0.93904,21.63841 -0.4005,-0.23587 -10.58231,-6.98633 -18.92952,-11.08687 -40.55269,-19.92133 -72.60922,-18.96707 -114.86356,3.41923 -6.54676,3.46848 -14.17773,9.65562 -14.25868,9.72616 -5.51052,4.80184 1.82594,-12.46736 1.8695,-23.70618 -0.13152,-27.88014 -5.44489,-46.46033 -16.91792,-59.1596 -7.34036,-8.1249 -14.7914,-10.64592 -29.61245,-10.01921 -10.42322,0.44074 -10.73222,3.30282 -15.87559,6.8683 -12.29347,8.52204 -17.49104,27.36405 -14.58163,55.18966 1.85978,17.78692 5.95091,28.11716 13.06963,37.44027 4.48238,5.87041 6.20254,6.69115 3.61973,6.69115 -1.58348,0 -5.45655,2.24842 -6.77069,4.25404 -2.17522,3.3198 -2.94822,3.80166 -0.95752,7.93259 1.20267,2.49568 4.44771,4.75039 7.67248,8.39328 3.22477,3.6429 7.75031,10.31649 7.75031,11.44745 0,1.13094 -5.59945,4.85521 -8.75291,6.27722 -7.288,3.28643 -9.94198,6.83262 -14.08051,14.99962 -9.78009,19.30006 -6.08103,34.96067 11.58532,34.96067 2.4791,0 8.26394,1.14351 12.73063,-1.30003 8.45016,-4.62272 20.3486,-18.47053 13.92332,0.2992 -1.26519,3.69591 7.52082,9.48583 13.79915,11.3956 5.9521,1.81055 181.40863,1.56928 188.67114,-0.25946 z"
         style="color:#000000;fill:url(#linearGradient4188);fill-opacity:1;fill-rule:nonzero;stroke:#000000;stroke-width:0.63761771;stroke-linecap:butt;stroke-linejoin:miter;stroke-miterlimit:4;stroke-opacity:1;stroke-dasharray:none;stroke-dashoffset:0;marker:none;visibility:visible;display:inline;overflow:visible;enable-background:accumulate" />
      <g
         transform="translate(0.99487674,8)"
         id="g3988">
        <g
           id="g3843">
          <g
             id="g3819">
            <g
               id="g3807"
               transform="matrix(1.0765248,0,0,1.120518,-25.175395,-58.312186)">
              <path
                 sodipodi:nodetypes="cssccsc"
                 inkscape:connector-curvature="0"
                 id="path3803"
                 d="m 356.78736,477.67789 c -42.18223,-0.41445 -81.61768,31.47171 -93.11326,36.0736 -20.27576,8.11674 -24.12328,-0.97547 -33.19651,0.15869 -16.10324,2.01291 1.00645,16.60646 1.00645,16.60646 9.05808,6.70968 9.56129,13.75485 -2.51613,17.10969 -16.10608,5.00627 -29.24714,48.81704 8.22662,41.03978 37.82772,-7.85072 81.03796,-16.97036 120.09605,-17.38815"
                 style="fill:none;stroke:#000000;stroke-width:5;stroke-linecap:butt;stroke-linejoin:miter;stroke-miterlimit:4;stroke-opacity:1;stroke-dasharray:none" />
              <path
                 style="fill:none;stroke:#000000;stroke-width:5;stroke-linecap:butt;stroke-linejoin:miter;stroke-miterlimit:4;stroke-opacity:1;stroke-dasharray:none"
                 d="m 354.45675,477.67789 c 42.18223,-0.41445 80.61123,31.47171 92.10681,36.0736 20.27576,8.11674 24.12328,-0.97547 33.19651,0.15869 16.10324,2.01291 -1.00645,16.60646 -1.00645,16.60646 -9.05808,6.70968 -9.56129,13.75485 2.51613,17.10969 16.10608,5.00627 29.24714,48.81704 -8.22662,41.03978 -37.82772,-7.85072 -81.03796,-16.97036 -120.09605,-17.38815"
                 id="path3805"
                 inkscape:connector-curvature="0"
                 sodipodi:nodetypes="cssccsc" />
            </g>
            <g
               id="g3815">
              <path
                 sodipodi:nodetypes="ccc"
                 inkscape:connector-curvature="0"
                 id="path3811"
                 d="m 244.56792,597.44572 c 4.75128,5.59211 8.17319,11.8489 20.63227,13.58711 l 105.6775,0"
                 style="fill:none;stroke:#000000;stroke-width:7;stroke-linecap:butt;stroke-linejoin:miter;stroke-miterlimit:4;stroke-opacity:1;stroke-dasharray:none" />
              <path
                 style="fill:none;stroke:#000000;stroke-width:7;stroke-linecap:butt;stroke-linejoin:miter;stroke-miterlimit:4;stroke-opacity:1;stroke-dasharray:none"
                 d="m 464.99383,597.44572 c -4.75128,5.59211 -8.17319,11.8489 -20.63227,13.58711 l -105.6775,0"
                 id="path3813"
                 inkscape:connector-curvature="0"
                 sodipodi:nodetypes="ccc" />
            </g>
          </g>
          <g
             id="g3837">
            <path
               style="fill:none;stroke:#000000;stroke-width:3.0999999;stroke-linecap:butt;stroke-linejoin:miter;stroke-miterlimit:4;stroke-opacity:1;stroke-dasharray:none"
               d="m 288.83892,540.02632 c 75.87907,-34.11873 133.63351,-0.13186 133.85816,0"
               id="path3827"
               inkscape:connector-curvature="0"
               sodipodi:nodetypes="cc" />
            <g
               id="g3833">
              <path
                 transform="translate(12,0)"
                 d="m 318.54218,560.20697 c 0,1.66755 -3.83013,3.01936 -8.55484,3.01936 -4.72472,0 -8.55485,-1.35181 -8.55485,-3.01936 0,-1.66754 3.83013,-3.01936 8.55485,-3.01936 4.72471,0 8.55484,1.35182 8.55484,3.01936 z"
                 sodipodi:ry="3.019357"
                 sodipodi:rx="8.5548449"
                 sodipodi:cy="560.20697"
                 sodipodi:cx="309.98734"
                 id="path3829"
                 style="fill:#00000f;fill-opacity:0.94117647;fill-rule:evenodd;stroke:#000000;stroke-width:1px;stroke-linecap:butt;stroke-linejoin:miter;stroke-opacity:1"
                 sodipodi:type="arc" />
              <path
                 sodipodi:type="arc"
                 style="fill:#00000f;fill-opacity:0.94117647;fill-rule:evenodd;stroke:#000000;stroke-width:1px;stroke-linecap:butt;stroke-linejoin:miter;stroke-opacity:1"
                 id="path3831"
                 sodipodi:cx="309.98734"
                 sodipodi:cy="560.20697"
                 sodipodi:rx="8.5548449"
                 sodipodi:ry="3.019357"
                 d="m 318.54218,560.20697 c 0,1.66755 -3.83013,3.01936 -8.55484,3.01936 -4.72472,0 -8.55485,-1.35181 -8.55485,-3.01936 0,-1.66754 3.83013,-3.01936 8.55485,-3.01936 4.72471,0 8.55484,1.35182 8.55484,3.01936 z"
                 transform="translate(76,0)" />
            </g>
          </g>
        </g>
        <g
           id="g3959">
          <g
             transform="matrix(-1,0,0,1,712.6432,0)"
             id="g3924">
            <g
               style="stroke-width:2;stroke-miterlimit:4;stroke-dasharray:none"
               id="g3926">
              <path
                 style="fill:none;stroke:#000000;stroke-width:5;stroke-linecap:butt;stroke-linejoin:miter;stroke-miterlimit:4;stroke-opacity:1;stroke-dasharray:none"
                 d="m 238.5292,521.45856 c -28.66962,-12.00435 -31.23078,-38.21456 -32.20647,-63.40649 0.46329,-36.64763 13.51118,-48.12608 32.7097,-47.30326 16.57813,-0.59464 33.09917,4.44487 41.76778,46.80003 5.15517,46.36332 -4.2237,49.80623 -7.04517,48.81294"
                 id="path3928"
                 inkscape:connector-curvature="0"
                 sodipodi:nodetypes="ccccc" />
              <path
                 style="fill:none;stroke:#000000;stroke-width:5;stroke-linecap:butt;stroke-linejoin:miter;stroke-miterlimit:4;stroke-opacity:1;stroke-dasharray:none"
                 d="m 279.79375,455.53594 c -11.91348,-13.33274 -23.11344,-8.36741 -24.7353,-7.36343 -23.15198,14.33183 -15.1052,49.13844 8.63206,64.73122"
                 id="path3930"
                 inkscape:connector-curvature="0"
                 sodipodi:nodetypes="csc" />
              <path
                 sodipodi:type="arc"
                 style="fill:#333333;fill-rule:evenodd;stroke:#000000;stroke-width:1.83082831;stroke-linecap:butt;stroke-linejoin:miter;stroke-miterlimit:4;stroke-opacity:1;stroke-dasharray:none"
                 id="path3932"
                 sodipodi:cx="268.47116"
                 sodipodi:cy="480.94885"
                 sodipodi:rx="6.2903271"
                 sodipodi:ry="7.8000059"
                 d="m 274.76149,480.94885 c 0,4.30783 -2.81628,7.80001 -6.29033,7.80001 -3.47405,0 -6.29033,-3.49218 -6.29033,-7.80001 0,-4.30782 2.81628,-7.8 6.29033,-7.8 3.47405,0 6.29033,3.49218 6.29033,7.8 z"
                 transform="matrix(1,0,0,1.1933416,0,-93.479344)" />
            </g>
            <path
               inkscape:connector-curvature="0"
               id="path3934"
               d="m 260.55556,509.23576 c -1.57505,-1.26019 -3.78705,-3.28856 -4.91555,-4.50748 -16.62202,-17.95376 -17.77759,-42.19086 -2.56703,-53.84121 3.38943,-2.5961 4.94591,-3.14025 9.12795,-3.19119 2.68247,-0.0327 3.87071,0.12825 5.75505,0.7794 2.98148,1.03027 6.29769,3.16778 9.31326,6.00301 l 2.33753,2.19773 0.55139,5.2748 c 1.78105,17.03806 1.07237,33.79467 -1.65628,39.16253 -0.74779,1.47107 -1.45875,2.01516 -7.86042,6.01552 -3.87106,2.41899 -7.07966,4.39816 -7.13022,4.39816 -0.0506,0 -1.38062,-1.03107 -2.95568,-2.29127 z m 11.20994,-20.15973 c 0.60132,-0.4709 1.61758,-1.89374 2.25835,-3.16188 1.05929,-2.09642 1.16171,-2.58092 1.12838,-5.33752 -0.0465,-3.84808 -1.01171,-6.5416 -2.98192,-8.32156 -3.23015,-2.91825 -6.9757,-1.8333 -9.22746,2.67286 -0.95725,1.91563 -1.09776,2.5684 -1.09776,5.09998 0,1.59675 0.23559,3.69284 0.52353,4.65798 0.61776,2.07065 2.36048,4.30945 3.89676,5.00604 1.57601,0.7146 4.17236,0.42386 5.50012,-0.6159 l 0,0 z"
               style="color:#000000;fill:#808080;fill-opacity:1;fill-rule:nonzero;stroke:#000000;stroke-width:5;stroke-linecap:butt;stroke-linejoin:miter;stroke-miterlimit:4;stroke-opacity:1;stroke-dasharray:none;stroke-dashoffset:0;marker:none;visibility:visible;display:inline;overflow:visible;enable-background:accumulate" />
            <path
               sodipodi:nodetypes="cssccccccccc"
               transform="matrix(-1,0,0,1,712.6432,0)"
               inkscape:connector-curvature="0"
               id="path3942"
               d="m 444.37301,467.82946 c 0.16422,-4.23132 0.97949,-7.54631 2.80165,-11.39183 1.09832,-2.31791 1.78526,-3.4685 3.7529,-6.28592 0.86555,-1.23937 1.57373,-2.34024 1.57373,-2.44637 0.0342,-0.0764 0.16721,0.007 0.25082,0.0109 1.23585,0.23779 3.34915,0.73804 4.64189,1.49337 3.08216,1.8545 6.55602,5.24163 8.5123,8.29978 0.34868,0.54509 0.5843,1.04073 0.52359,1.10144 0.0681,0.0856 0.17342,0.23167 0.21581,0.2883 0.28163,1.31066 0.0152,2.97715 -0.24837,4.18105 -1.518,6.74852 -7.49563,12.48577 -13.47772,15.28122 -8.82912,2.08482 -8.58577,-7.09119 -8.5466,-10.53194 z"
               style="color:#000000;fill:#ffffff;fill-opacity:1;fill-rule:nonzero;stroke:#000000;stroke-width:5;stroke-linecap:butt;stroke-linejoin:miter;stroke-miterlimit:4;stroke-opacity:1;stroke-dasharray:none;stroke-dashoffset:0;marker:none;visibility:visible;display:inline;overflow:visible;enable-background:accumulate" />
          </g>
        </g>
        <g
           id="g3948">
          <path
             inkscape:connector-curvature="0"
             id="path3911"
             d="m 263.26843,509.47672 c -7.95153,-6.06145 -13.56172,-13.48391 -16.90474,-22.3655 -3.64886,-9.69412 -3.16885,-20.44764 1.2462,-27.91816 2.40652,-4.07198 6.91954,-8.17317 10.40607,-9.45648 2.36034,-0.86879 7.08047,-0.75355 9.7004,0.23683 2.87151,1.08548 6.35666,3.4062 8.63285,5.7485 l 1.87199,1.92637 0.59268,5.50034 c 0.76946,7.14091 0.87758,26.61177 0.16985,30.58668 -1.00911,5.66756 -2.03056,8.16487 -4.18326,10.22752 -1.60425,1.53713 -9.21834,6.51174 -9.91823,6.48 -0.20261,-0.009 -0.92883,-0.44394 -1.61381,-0.9661 z m 8.40683,-20.33888 c 6.26713,-4.92972 3.83019,-18.5375 -3.31852,-18.53046 -2.44297,0.002 -4.80851,2.11027 -6.01593,5.36062 -0.86874,2.33863 -0.7908,6.7703 0.16253,9.24177 1.76168,4.56709 6.03364,6.39665 9.17192,3.92807 l 0,0 z"
             style="color:#000000;fill:#ffffff;fill-opacity:1;fill-rule:nonzero;stroke:none;stroke-width:0.15940443;marker:none;visibility:visible;display:inline;overflow:visible;enable-background:accumulate" />
          <g
             style="stroke-width:5;stroke-miterlimit:4;stroke-dasharray:none"
             id="g3917">
            <g
               id="g3882"
               style="stroke-width:5;stroke-miterlimit:4;stroke-dasharray:none">
              <path
                 sodipodi:nodetypes="ccccc"
                 inkscape:connector-curvature="0"
                 id="path3876"
                 d="m 238.5292,521.45856 c -28.66962,-12.00435 -31.23078,-38.21456 -32.20647,-63.40649 0.46329,-36.64763 13.51118,-48.12608 32.7097,-47.30326 16.57813,-0.59464 33.09917,4.44487 41.76778,46.80003 5.15517,46.36332 -4.2237,49.80623 -7.04517,48.81294"
                 style="fill:none;stroke:#000000;stroke-width:5;stroke-linecap:butt;stroke-linejoin:miter;stroke-miterlimit:4;stroke-opacity:1;stroke-dasharray:none" />
              <path
                 sodipodi:nodetypes="csc"
                 inkscape:connector-curvature="0"
                 id="path3878"
                 d="m 279.79375,455.53594 c -11.91348,-13.33274 -23.11344,-8.36741 -24.7353,-7.36343 -23.15198,14.33183 -15.1052,49.13844 8.63206,64.73122"
                 style="fill:none;stroke:#000000;stroke-width:5;stroke-linecap:butt;stroke-linejoin:miter;stroke-miterlimit:4;stroke-opacity:1;stroke-dasharray:none" />
              <path
                 transform="matrix(1,0,0,1.1933416,0,-93.479344)"
                 d="m 274.76149,480.94885 c 0,4.30783 -2.81628,7.80001 -6.29033,7.80001 -3.47405,0 -6.29033,-3.49218 -6.29033,-7.80001 0,-4.30782 2.81628,-7.8 6.29033,-7.8 3.47405,0 6.29033,3.49218 6.29033,7.8 z"
                 sodipodi:ry="7.8000059"
                 sodipodi:rx="6.2903271"
                 sodipodi:cy="480.94885"
                 sodipodi:cx="268.47116"
                 id="path3880"
                 style="fill:#333333;fill-rule:evenodd;stroke:#000000;stroke-width:4.57707071;stroke-linecap:butt;stroke-linejoin:miter;stroke-miterlimit:4;stroke-opacity:1;stroke-dasharray:none"
                 sodipodi:type="arc" />
            </g>
            <path
               style="color:#000000;fill:#808080;fill-opacity:1;fill-rule:nonzero;stroke:#000000;stroke-width:5;stroke-linecap:butt;stroke-linejoin:miter;stroke-miterlimit:4;stroke-opacity:1;stroke-dasharray:none;stroke-dashoffset:0;marker:none;visibility:visible;display:inline;overflow:visible;enable-background:accumulate"
               d="m 260.55556,509.23576 c -1.57505,-1.26019 -3.78705,-3.28856 -4.91555,-4.50748 -16.62202,-17.95376 -17.77759,-42.19086 -2.56703,-53.84121 3.38943,-2.5961 4.94591,-3.14025 9.12795,-3.19119 2.68247,-0.0327 3.87071,0.12825 5.75505,0.7794 2.98148,1.03027 6.29769,3.16778 9.31326,6.00301 l 2.33753,2.19773 0.55139,5.2748 c 1.78105,17.03806 1.07237,33.79467 -1.65628,39.16253 -0.74779,1.47107 -1.45875,2.01516 -7.86042,6.01552 -3.87106,2.41899 -7.07966,4.39816 -7.13022,4.39816 -0.0506,0 -1.38062,-1.03107 -2.95568,-2.29127 z m 11.20994,-20.15973 c 0.60132,-0.4709 1.61758,-1.89374 2.25835,-3.16188 1.05929,-2.09642 1.16171,-2.58092 1.12838,-5.33752 -0.0465,-3.84808 -1.01171,-6.5416 -2.98192,-8.32156 -3.23015,-2.91825 -6.9757,-1.8333 -9.22746,2.67286 -0.95725,1.91563 -1.09776,2.5684 -1.09776,5.09998 0,1.59675 0.23559,3.69284 0.52353,4.65798 0.61776,2.07065 2.36048,4.30945 3.89676,5.00604 1.57601,0.7146 4.17236,0.42386 5.50012,-0.6159 l 0,0 z"
               id="path3915"
               inkscape:connector-curvature="0" />
          </g>
          <path
             sodipodi:nodetypes="ccc"
             inkscape:connector-curvature="0"
             id="path3936"
             d="m 271.85767,447.79913 c -6.92719,9.14972 -6.11049,18.02828 -3.74891,26.24912 2.86542,7.74442 4.77798,9.18064 14.06811,10.75768"
             style="fill:none;stroke:#000000;stroke-width:1px;stroke-linecap:butt;stroke-linejoin:miter;stroke-opacity:1" />
          <path
             sodipodi:nodetypes="cccssccccccccc"
             inkscape:connector-curvature="0"
             id="path3946"
             d="m 279.79897,483.86867 c -1.7253,-0.37675 -3.64237,-0.88954 -4.20598,-1.12502 -7.05147,-3.35077 -7.06722,-8.64104 -7.97458,-12.66019 -0.62227,-2.69579 -0.86614,-7.11558 -0.53665,-9.7259 0.38084,-3.01714 1.49148,-6.30852 3.04668,-9.02884 0.48991,-0.85692 0.91767,-1.58627 0.95059,-1.62075 0.64819,0.42056 1.03947,0.68066 1.68628,1.19188 2.58365,1.8945 5.73318,3.90538 7.03207,6.51536 0.0803,0.39885 0.13367,0.88006 0.11863,1.06935 -0.015,0.1893 0.003,0.42909 0.0412,0.53288 0.68519,8.64348 1.57585,16.78151 1.23221,25.1505 -0.0382,-0.006 -0.66388,-0.14061 -1.39041,-0.29926 l 0,0 z"
             style="color:#000000;fill:#ffffff;fill-opacity:1;fill-rule:nonzero;stroke:#000000;stroke-width:5;stroke-linecap:butt;stroke-linejoin:miter;stroke-miterlimit:4;stroke-opacity:1;stroke-dasharray:none;stroke-dashoffset:0;marker:none;visibility:visible;display:inline;overflow:visible;enable-background:accumulate" />
        </g>
      </g>
      <path
         sodipodi:nodetypes="cc"
         inkscape:connector-curvature="0"
         id="path4021"
         d="m 182.16788,375.03266 c 37.57422,5.65891 75.14844,17.83656 112.72266,34.21938"
         style="fill:none;stroke:#000000;stroke-width:10;stroke-linecap:butt;stroke-linejoin:miter;stroke-miterlimit:4;stroke-opacity:1;stroke-dasharray:none" />
      <path
         sodipodi:nodetypes="cc"
         inkscape:connector-curvature="0"
         id="path4023"
         d="m 413.52287,405.11008 c 26.99226,-37.9459 71.43162,-37.82221 115.15918,-39.25164"
         style="fill:none;stroke:#000000;stroke-width:10;stroke-linecap:butt;stroke-linejoin:miter;stroke-miterlimit:4;stroke-opacity:1;stroke-dasharray:none" />
      <path
         sodipodi:nodetypes="sssssssssssssssscsscsscscss"
         inkscape:connector-curvature="0"
         id="path4068"
         d="m 213.99511,607.34596 c -6.71241,-2.70449 -10.85709,-16.15772 -5.85479,-27.18582 3.78704,-8.34895 7.22233,-11.19501 15.31818,-15.3005 12.04311,-6.10718 13.79047,-9.91142 3.22768,-21.99699 -4.31987,-4.94264 -9.98143,-10.83695 -9.75433,-12.01121 0.44792,-2.31611 3.16653,-11.03436 19.70881,-1.36767 9.50578,5.55483 20.77887,-2.50588 41.31146,-14.66514 33.13388,-19.62166 48.5767,-25.02968 69.60738,-27.84355 23.47368,-3.14075 46.25642,2.2377 80.9642,23.18003 11.03111,6.65605 26.27842,17.61286 30.19261,19.12051 7.18068,2.76583 8.65078,0.28365 29.53427,-2.31686 6.03692,-0.75174 9.07379,2.12332 9.07379,4.59541 0,1.5227 -3.91418,7.49574 -7.82836,11.96869 -9.86388,11.272 -7.58617,16.73595 2.98307,21.00731 13.81985,5.58505 20.61935,28.78244 13.62013,39.4646 -4.18984,6.39452 -12.99373,5.50003 -51.71679,-2.27412 -56.03696,-11.25014 -65.73148,-13.66696 -97.43482,-13.66533 -31.49749,0.002 -46.42144,3.24863 -99.5387,13.98078 -32.42592,6.55155 -37.99779,7.49202 -43.41379,5.30986 z m 115.82668,-37.7872 c 3.6649,-4.41594 -9.59756,-7.05397 -14.94647,-2.97298 -2.39143,1.82455 -2.47584,2.30003 -0.62788,3.53655 3.22199,2.15592 13.62994,1.7793 15.57435,-0.56357 z m 64.05023,0 c 3.66491,-4.41594 -9.59756,-7.05397 -14.94647,-2.97298 -2.39142,1.82455 -2.47584,2.30003 -0.62787,3.53655 3.22198,2.15592 13.62993,1.7793 15.57434,-0.56357 z"
         style="color:#000000;fill:url(#linearGradient4190);fill-opacity:1;fill-rule:nonzero;stroke:#000000;stroke-width:0;stroke-linecap:butt;stroke-linejoin:miter;stroke-miterlimit:4;stroke-opacity:1;stroke-dasharray:none;stroke-dashoffset:0;marker:none;visibility:visible;display:inline;overflow:visible;enable-background:accumulate" />
      <path
         sodipodi:nodetypes="cssssscsc"
         inkscape:connector-curvature="0"
         id="path4082"
         d="m 262.14593,614.79523 c -5.87897,-0.52857 -14.53087,-7.04137 -12.59722,-7.70786 2.88272,-0.9936 39.46412,-8.98973 52.79606,-11.06096 42.7487,-6.6414 67.18047,-6.64802 109.45169,-0.0297 13.54483,2.1207 47.83565,9.88326 50.24351,10.76821 1.43335,0.5268 -4.26296,7.42463 -8.08091,8.67044 l -6.68515,2.18137 -92.0904,1.83929 c -54.05132,1.07955 -93.64567,-3.38203 -93.03758,-4.66079 z"
         style="color:#000000;fill:#808000;fill-opacity:1;fill-rule:nonzero;stroke:#000000;stroke-width:0;stroke-linecap:butt;stroke-linejoin:miter;stroke-miterlimit:4;stroke-opacity:1;stroke-dasharray:none;stroke-dashoffset:0;marker:none;visibility:visible;display:inline;overflow:visible;enable-background:accumulate" />
    </g>
    <text
       xml:space="preserve"
       style="font-size:80px;font-style:normal;font-variant:normal;font-weight:500;font-stretch:normal;text-align:start;line-height:125%;letter-spacing:0px;word-spacing:0px;writing-mode:lr-tb;text-anchor:start;fill:#000000;fill-opacity:1;stroke:none;font-family:Cochin;-inkscape-font-specification:Cochin Medium"
       x="167.27074"
       y="889.60571"
       id="text4119"
       sodipodi:linespacing="125%"
       transform="scale(1.1242357,0.8894932)"><tspan
         sodipodi:role="line"
         id="tspan4121"
         x="167.27074"
         y="889.60571">PUGGLE</tspan></text>
    <text
       xml:space="preserve"
       style="font-size:80px;font-style:normal;font-variant:normal;font-weight:500;font-stretch:normal;text-align:start;line-height:125%;letter-spacing:0px;word-spacing:0px;writing-mode:lr-tb;text-anchor:start;fill:#000000;fill-opacity:1;stroke:none;font-family:Cochin;-inkscape-font-specification:Cochin Medium"
       x="160.78011"
       y="974.79456"
       id="text4123"
       sodipodi:linespacing="125%"
       transform="scale(1.1242357,0.8894932)"><tspan
         sodipodi:role="line"
         id="tspan4125"
         x="160.78011"
         y="974.79456">COMING</tspan></text>
    <text
       xml:space="preserve"
       style="font-size:35px;font-style:normal;font-variant:normal;font-weight:500;font-stretch:normal;text-align:start;line-height:125%;letter-spacing:0px;word-spacing:0px;writing-mode:lr-tb;text-anchor:start;fill:#000000;fill-opacity:1;stroke:none;font-family:Cochin;-inkscape-font-specification:Cochin Medium"
       x="367.16241"
       y="815.75854"
       id="text4127"
       sodipodi:linespacing="125%"
       transform="scale(0.9999035,1.0000965)"><tspan
         sodipodi:role="line"
         id="tspan4129"
         x="367.16241"
         y="815.75854">IS</tspan></text>
  </g>
</svg>
